<svg width="531" height="456" viewBox="0 0 531 456" fill="none" xmlns="http://www.w3.org/2000/svg">
<mask id="mask0_772_236" style="mask-type:luminance" maskUnits="userSpaceOnUse" x="-76" y="-103" width="607" height="699">
<path d="M530.194 431.546L293.725 595.103L-76 60.557L160.47 -103L530.194 431.546Z" fill="white"/>
</mask>
<g mask="url(#mask0_772_236)">
<mask id="mask1_772_236" style="mask-type:luminance" maskUnits="userSpaceOnUse" x="-28" y="-100" width="467" height="696">
<path d="M334.588 595.461L-27.2931 523.637L76.3314 -99.9273L438.223 -28.1098L334.588 595.461Z" fill="white"/>
</mask>
<g mask="url(#mask1_772_236)">
<mask id="mask2_772_236" style="mask-type:luminance" maskUnits="userSpaceOnUse" x="-28" y="-100" width="467" height="696">
<path d="M334.588 595.461L-27.2931 523.637L76.3314 -99.9273L438.223 -28.1098L334.588 595.461Z" fill="white"/>
</mask>
<g mask="url(#mask2_772_236)">
<path d="M159.908 -82.7597L160.036 -80.4894C122.519 -79.3154 75.9715 -50.6666 62.4609 9.46316C51.5686 57.9827 64.5792 95.6053 76.0545 128.812C77.3484 132.524 78.6273 136.215 79.8486 139.866C100.092 123.901 126.709 110.272 156.031 100.978C188.595 90.6446 220.974 86.6126 247.187 89.6159C260.682 91.1577 283.154 98.0469 302.077 112.362C317.915 124.346 336.357 145.706 334.234 179.485C332.716 203.711 323.895 223.458 307.273 239.846C292.805 254.112 274.219 264.022 257.818 272.786C237.004 283.89 219.031 293.487 212.466 308.887C199.557 339.14 227.057 353.586 261.853 371.882C304.692 394.398 358.016 422.422 350.528 492.856C348.615 510.943 342.967 528.401 333.754 544.763C324.975 560.333 312.96 574.928 298.048 588.155L296.534 586.431C326.711 559.67 344.616 527.213 348.291 492.55C355.61 423.69 303.073 396.072 260.859 373.883C226.408 355.776 196.652 340.152 210.393 307.931C217.267 291.826 235.554 282.059 256.722 270.758C290.447 252.766 328.661 232.367 331.99 179.28C335.647 121.01 276.31 95.2292 247.004 91.8799C194.723 85.8836 123.898 107.673 80.6109 142.188C86.3393 159.566 90.7726 176.335 89.8194 193.126C88.2358 221.118 74.1976 234.564 62.666 237.569C56.7128 239.122 50.4212 237.901 45.8265 234.319C42.137 231.425 37.6871 225.48 37.5575 213.601C37.4428 201.523 40.4734 189.532 46.5749 177.967C52.2329 167.246 60.532 156.883 71.2366 147.136C73.3985 145.182 75.639 143.252 77.9758 141.351C76.6792 137.435 75.3217 133.498 73.945 129.512C62.3615 96.0152 49.2341 58.046 60.2763 8.90028C66.6596 -19.5617 81.0597 -43.421 101.889 -60.0919C119.137 -73.8893 140.287 -82.1543 159.908 -82.7597ZM53.9974 235.618C56.594 236.133 59.3525 236.061 62.0489 235.368C72.8719 232.536 86.0501 219.733 87.5725 192.939C88.4897 176.806 84.2741 160.551 78.7633 143.688C76.6919 145.374 74.6961 147.102 72.7788 148.856C50.9768 168.669 39.5819 191.083 39.8179 213.653C39.9059 222.299 42.448 228.836 47.1879 232.539C49.1556 234.075 51.5075 235.123 53.9974 235.618Z" fill="#DFB0B0"/>
</g>
</g>
</g>
</svg>
