<svg width="550" height="456" viewBox="0 0 550 456" fill="none" xmlns="http://www.w3.org/2000/svg">
<mask id="mask0_319_42" style="mask-type:luminance" maskUnits="userSpaceOnUse" x="0" y="-103" width="572" height="708">
<path d="M321.993 -103L571.751 39.4414L249.758 604.027L-2.35285e-05 461.585L321.993 -103Z" fill="white"/>
</mask>
<g mask="url(#mask0_319_42)">
<mask id="mask1_319_42" style="mask-type:luminance" maskUnits="userSpaceOnUse" x="-53" y="2" width="700" height="535">
<path d="M554.397 2.44471L646.192 359.782L39.169 536.114L-52.6379 178.77L554.397 2.44471Z" fill="white"/>
</mask>
<g mask="url(#mask1_319_42)">
<mask id="mask2_319_42" style="mask-type:luminance" maskUnits="userSpaceOnUse" x="-53" y="2" width="700" height="535">
<path d="M554.397 2.44471L646.192 359.782L39.169 536.114L-52.6379 178.77L554.397 2.44471Z" fill="white"/>
</mask>
<g mask="url(#mask2_319_42)">
<path d="M18.4914 453.336L20.4829 452.238C37.7715 485.555 83.7373 515.128 143.794 501.296C192.25 490.127 220.542 462.121 245.517 437.409C248.303 434.637 251.077 431.887 253.841 429.207C230.69 417.862 206.888 399.761 185.823 377.345C162.42 352.457 144.777 325.008 136.145 300.075C131.697 287.242 128.187 264.001 132.906 240.748C136.859 221.284 148.139 195.417 179.512 182.718C202.011 173.606 223.63 173.016 245.596 180.912C264.717 187.785 281.692 200.254 296.689 211.251C315.704 225.213 332.132 237.265 348.857 236.521C381.716 235.072 382.844 204.03 384.287 164.743C386.054 116.379 388.252 56.1802 454.993 32.4616C472.128 26.3613 490.311 23.9009 509.048 25.1294C526.884 26.3083 545.241 30.8272 563.616 38.549L562.717 40.6595C525.536 25.0298 488.527 22.9283 455.686 34.6101C390.437 57.8009 388.264 117.115 386.521 164.774C385.099 203.667 383.886 237.254 348.891 238.804C331.397 239.574 314.681 227.312 295.335 213.116C264.524 190.493 229.601 164.865 180.298 184.83C126.181 206.74 128.607 271.39 138.265 299.261C155.476 348.991 205.76 403.419 255.605 427.515C268.794 414.832 281.996 403.581 297.546 397.176C323.468 386.495 341.664 393.335 349.362 402.431C353.337 407.127 354.958 413.327 353.717 419.019C352.704 423.598 349.268 430.182 338.615 435.437C327.775 440.766 315.653 443.221 302.586 442.723C290.473 442.26 277.54 439.26 264.122 433.826C261.424 432.722 258.715 431.537 255.99 430.253C253.021 433.116 250.059 436.043 247.06 439.009C221.871 463.943 193.317 492.204 144.232 503.509C115.809 510.067 88.0686 507.406 64.0274 495.838C44.1266 486.257 27.5251 470.763 18.4914 453.336ZM351.352 411.091C350.694 408.527 349.436 406.071 347.644 403.94C340.409 395.407 323.165 389.065 298.349 399.283C283.408 405.435 270.576 416.268 257.756 428.532C260.172 429.67 262.594 430.722 265.005 431.692C292.299 442.777 317.437 443.354 337.683 433.377C345.44 429.557 350.234 424.438 351.522 418.562C352.056 416.124 351.984 413.55 351.352 411.091Z" fill="#DFB0B0"/>
</g>
</g>
</g>
</svg>
