<svg width="33" height="38" viewBox="0 0 33 38" fill="none" xmlns="http://www.w3.org/2000/svg">
<path fill-rule="evenodd" clip-rule="evenodd" d="M8.32459 2.09396C13.4746 -0.74374 19.8049 -0.694141 24.9066 2.22388C29.9582 5.20134 33.0284 10.5152 32.9998 16.2315C32.8822 21.9102 29.5901 27.2482 25.4749 31.3748C23.0997 33.7673 20.4427 35.8828 17.5581 37.6782C17.261 37.8411 16.9356 37.9502 16.5979 38C16.2729 37.9869 15.9563 37.8958 15.6769 37.735C11.2729 35.0373 7.40933 31.5937 4.27195 27.57C1.64668 24.2113 0.155182 20.1534 2.74279e-06 15.9475C-0.00340806 10.2203 3.17454 4.93166 8.32459 2.09396ZM11.3014 18.3182C12.1677 20.3435 14.2126 21.6646 16.4811 21.6646C17.9673 21.6747 19.396 21.1102 20.4487 20.0968C21.5015 19.0835 22.0909 17.7054 22.0856 16.2698C22.0935 14.0784 20.7331 12.0986 18.6395 11.2547C16.5459 10.4108 14.1321 10.8692 12.5252 12.4161C10.9182 13.9629 10.4351 16.2929 11.3014 18.3182Z" fill="#2A4552"/>
</svg>
