<svg width="98" height="61" viewBox="0 0 98 61" fill="none" xmlns="http://www.w3.org/2000/svg">
<path d="M16.0879 36.0679C15.6152 37.991 14.9835 39.1762 11.7027 39.1762H3.40363C2.96188 39.1762 2.89858 38.969 3.08848 38.643L16.6872 21.2362H0.626504C0.499904 21.2362 0.405627 21.2653 0.374651 21.384L0.217073 24.9953C0.217073 25.2328 0.689804 25.291 0.753105 25.0256C1.22584 23.1012 1.85749 21.9173 5.13832 21.9173H13.4374C9.24071 27.5704 4.22384 33.1364 0.12145 38.7908C-0.0994272 39.1459 -0.0671037 39.7676 0.626504 39.8269V39.856H16.2145C16.3411 39.856 16.4354 39.8269 16.4664 39.7082L16.6253 36.0969C16.6253 35.8303 16.1512 35.8012 16.0879 36.0679Z" fill="#2A4552"/>
<path d="M33.275 36.5646C32.3296 36.5053 31.6669 36.3271 31.6669 35.5285V23.7458C31.6669 23.5386 31.477 23.5095 31.2871 23.598C30.246 24.0718 28.9841 24.4269 27.8487 24.7226C27.3437 24.8413 27.4689 25.2558 27.8164 25.2558C29.2992 25.2558 29.5201 25.2267 29.5201 26.8251V32.7752C29.5201 35.1431 27.0905 36.4168 24.8817 36.4168C23.0514 36.4168 21.3477 35.5285 21.3477 33.6041V23.7458C21.3477 23.5386 21.1591 23.5095 20.9692 23.598C19.9281 24.0718 18.6662 24.4269 17.5294 24.7226C17.0257 24.8413 17.1833 25.2558 17.4985 25.2558C18.9813 25.2558 19.2022 25.2267 19.2022 26.8251V33.6041C19.2022 36.2096 21.6642 37.5414 24.2514 37.5414C26.2703 37.5414 28.3847 36.7125 29.5201 35.0547C29.5201 35.6473 29.5201 36.2096 29.5201 36.7719C29.5201 37.2154 29.6157 37.3935 30.1208 37.3341L33.275 37.0081C33.6858 36.9791 33.7168 36.5937 33.275 36.5646Z" fill="#2A4552"/>
<mask id="mask0_248_495" style="mask-type:luminance" maskUnits="userSpaceOnUse" x="34" y="0" width="64" height="61">
<path d="M34.1127 0.573853H98V60.5183H34.1127V0.573853Z" fill="white"/>
</mask>
<g mask="url(#mask0_248_495)">
<path d="M97.9798 30.5341C97.9798 31.0244 97.9664 31.5134 97.9408 32.0036C97.9152 32.4939 97.8775 32.9816 97.8263 33.4706C97.7751 33.9583 97.7105 34.4448 97.6337 34.93C97.5569 35.414 97.468 35.8979 97.3657 36.3781C97.2647 36.8595 97.1502 37.3371 97.0222 37.8135C96.8956 38.2886 96.7556 38.7611 96.6047 39.2299C96.4525 39.7 96.2896 40.1649 96.1131 40.6261C95.9367 41.0886 95.7482 41.546 95.5488 41.9984C95.3482 42.452 95.1367 42.8993 94.9131 43.3428C94.6896 43.7863 94.4552 44.2235 94.2088 44.6569C93.9623 45.089 93.705 45.5149 93.4357 45.9356C93.1677 46.3564 92.8875 46.7708 92.598 47.1777C92.3071 47.5858 92.0067 47.9864 91.6956 48.3806C91.3845 48.7748 91.0626 49.1602 90.7313 49.5393C90.4 49.9184 90.0579 50.2898 89.7077 50.6537C89.3562 51.0164 88.9966 51.3715 88.6262 51.7177C88.2572 52.0651 87.8787 52.4025 87.4909 52.7323C87.1043 53.0608 86.7084 53.3818 86.3043 53.6926C85.9003 54.0034 85.4881 54.3054 85.0693 54.5973C84.6491 54.8892 84.2221 55.171 83.7871 55.4439C83.3535 55.7168 82.9117 55.9784 82.4632 56.2311C82.0147 56.4825 81.5608 56.7239 81.0989 56.9551C80.6383 57.1863 80.1723 57.4075 79.6996 57.6172C79.2268 57.8257 78.7487 58.0254 78.2665 58.2124C77.783 58.4006 77.2968 58.5763 76.8039 58.7418C76.3123 58.9073 75.8167 59.0602 75.3157 59.203C74.816 59.3458 74.3123 59.4759 73.8059 59.5947C73.2982 59.7147 72.7891 59.8221 72.2759 59.9169C71.7641 60.0129 71.2483 60.0963 70.7311 60.1684C70.2153 60.2404 69.6968 60.301 69.1756 60.349C68.6557 60.3971 68.1345 60.4324 67.6133 60.4564C67.0907 60.4804 66.5681 60.4931 66.0456 60.4931C65.523 60.4931 65.0018 60.4804 64.4792 60.4564C63.9567 60.4324 63.4368 60.3971 62.9156 60.349C62.3957 60.301 61.8772 60.2404 61.36 60.1684C60.8442 60.0963 60.3284 60.0129 59.8166 59.9169C59.3034 59.8221 58.7943 59.7147 58.2866 59.5947C57.7802 59.4759 57.2765 59.3458 56.7768 59.203C56.2758 59.0602 55.7802 58.9073 55.2886 58.7418C54.7957 58.5763 54.3081 58.4006 53.826 58.2124C53.3424 58.0254 52.8657 57.8257 52.3929 57.6172C51.9202 57.4075 51.4542 57.1863 50.9923 56.9551C50.5317 56.7239 50.0778 56.4825 49.6293 56.2311C49.1808 55.9784 48.739 55.7168 48.3054 55.4439C47.8704 55.171 47.4434 54.8892 47.0232 54.5973C46.603 54.3054 46.1922 54.0034 45.7882 53.6926C45.3841 53.3818 44.9882 53.0608 44.6003 52.7323C44.2138 52.4025 43.8353 52.0651 43.4663 51.7177C43.0959 51.3715 42.7363 51.0164 42.3848 50.6537C42.0346 50.2898 41.6925 49.9184 41.3612 49.5393C41.0299 49.1602 40.708 48.7748 40.3969 48.3806C40.0858 47.9864 39.7854 47.5858 39.4945 47.1777C39.2036 46.7708 38.9248 46.3564 38.6555 45.9356C38.3875 45.5149 38.1302 45.089 37.8837 44.6569C37.6373 44.2235 37.4016 43.7863 37.178 43.3428C36.9558 42.8993 36.743 42.452 36.5437 41.9984C36.343 41.546 36.1558 41.0886 35.9794 40.6261C35.8029 40.1649 35.64 39.7 35.4878 39.2299C35.3356 38.7611 35.1969 38.2886 35.0703 37.8135C34.9423 37.3371 34.8278 36.8595 34.7268 36.3781C34.6245 35.8979 34.5356 35.414 34.4588 34.93C34.382 34.4448 34.3174 33.9583 34.2662 33.4706C34.215 32.9816 34.1773 32.4939 34.1517 32.0036C34.1261 31.5134 34.1127 31.0244 34.1127 30.5341C34.1127 30.0438 34.1261 29.5536 34.1517 29.0633C34.1773 28.5743 34.215 28.0853 34.2662 27.5976C34.3174 27.1086 34.382 26.6221 34.4588 26.1382C34.5356 25.653 34.6245 25.1703 34.7268 24.6889C34.8278 24.2075 34.9423 23.7298 35.0703 23.2535C35.1969 22.7784 35.3356 22.3058 35.4878 21.837C35.64 21.3682 35.8029 20.902 35.9794 20.4408C36.1558 19.9783 36.343 19.5222 36.5437 19.0686C36.743 18.6162 36.9558 18.1676 37.178 17.7241C37.4016 17.2806 37.6373 16.8434 37.8837 16.4113C38.1302 15.9779 38.3875 15.5521 38.6555 15.1313C38.9248 14.7106 39.2036 14.2961 39.4945 13.8892C39.7854 13.4811 40.0858 13.0806 40.3969 12.6863C40.708 12.2934 41.0299 11.9067 41.3612 11.5276C41.6925 11.1486 42.0346 10.7771 42.3848 10.4144C42.7363 10.0505 43.0959 9.69549 43.4663 9.34927C43.8353 9.00179 44.2138 8.66442 44.6003 8.33463C44.9882 8.00611 45.3841 7.68516 45.7882 7.37433C46.1922 7.06349 46.603 6.7615 47.0232 6.46962C47.4434 6.17774 47.8704 5.89596 48.3054 5.62303C48.739 5.35137 49.1808 5.08855 49.6293 4.8371C50.0778 4.58439 50.5317 4.34305 50.9923 4.11182C51.4542 3.88059 51.9202 3.66073 52.3929 3.45098C52.8657 3.24123 53.3424 3.04285 53.826 2.85458C54.3081 2.66757 54.7957 2.49067 55.2886 2.32515C55.7802 2.16088 56.2758 2.00673 56.7768 1.86395C57.2765 1.72243 57.7802 1.59102 58.2866 1.47224C58.7943 1.35347 59.3034 1.24607 59.8166 1.15004C60.3284 1.054 60.8442 0.97061 61.36 0.898587C61.8772 0.826564 62.3957 0.765914 62.9156 0.717898C63.4368 0.669883 63.9567 0.634503 64.4792 0.610496C65.0018 0.586488 65.523 0.573853 66.0456 0.573853C66.5681 0.573853 67.0907 0.586488 67.6133 0.610496C68.1345 0.634503 68.6557 0.669883 69.1756 0.717898C69.6968 0.765914 70.2153 0.826564 70.7311 0.898587C71.2483 0.97061 71.7641 1.054 72.2759 1.15004C72.7891 1.24607 73.2982 1.35347 73.8059 1.47224C74.3123 1.59102 74.816 1.72243 75.3157 1.86395C75.8167 2.00673 76.3123 2.16088 76.8039 2.32515C77.2968 2.49067 77.783 2.66757 78.2665 2.85458C78.7487 3.04285 79.2268 3.24123 79.6996 3.45098C80.1723 3.66073 80.6383 3.88059 81.0989 4.11182C81.5608 4.34305 82.0147 4.58439 82.4632 4.8371C82.9117 5.08855 83.3535 5.35137 83.7871 5.62303C84.2221 5.89596 84.6491 6.17774 85.0693 6.46962C85.4881 6.7615 85.9003 7.06349 86.3043 7.37433C86.7084 7.68516 87.1043 8.00611 87.4909 8.33463C87.8787 8.66442 88.2572 9.00179 88.6262 9.34927C88.9966 9.69549 89.3562 10.0505 89.7077 10.4144C90.0579 10.7771 90.4 11.1486 90.7313 11.5276C91.0626 11.9067 91.3845 12.2934 91.6956 12.6863C92.0067 13.0806 92.3071 13.4811 92.598 13.8892C92.8875 14.2961 93.1677 14.7106 93.4357 15.1313C93.705 15.5521 93.9623 15.9779 94.2088 16.4113C94.4552 16.8434 94.6896 17.2806 94.9131 17.7241C95.1367 18.1676 95.3482 18.6162 95.5488 19.0686C95.7482 19.5222 95.9367 19.9783 96.1131 20.4408C96.2896 20.902 96.4525 21.3682 96.6047 21.837C96.7556 22.3058 96.8956 22.7784 97.0222 23.2535C97.1502 23.7298 97.2647 24.2075 97.3657 24.6889C97.468 25.1703 97.5569 25.653 97.6337 26.1382C97.7105 26.6221 97.7751 27.1086 97.8263 27.5976C97.8775 28.0853 97.9152 28.5743 97.9408 29.0633C97.9664 29.5536 97.9798 30.0438 97.9798 30.5341Z" fill="#2A4552"/>
</g>
<path d="M52.0167 38.1648C50.9448 37.9867 50.0292 38.2533 50.0292 36.6839V28.8094C50.0292 26.204 47.5691 24.8722 44.95 24.8722C42.9316 24.8722 40.8175 25.672 39.7133 27.3298V25.0794C39.7133 24.8722 39.4925 24.8431 39.3349 24.9316C38.2941 25.4054 37.0324 25.7605 35.8649 26.0561C35.36 26.1749 35.5175 26.5894 35.8326 26.5894C37.3475 26.5894 37.5373 26.5603 37.5373 28.1587V36.6839C37.5373 38.2533 36.6217 37.9867 35.5808 38.1648C35.2657 38.2242 35.2657 38.6677 35.6118 38.6677H41.6699C41.9849 38.6677 42.0159 38.2242 41.7008 38.1648C40.629 37.9867 39.7133 38.2533 39.7133 36.6839V29.6383C39.7133 27.2704 42.1425 25.9968 44.3198 25.9968C46.1808 25.9968 47.8532 26.885 47.8532 28.8094V36.6839C47.8532 38.2533 46.9375 37.9867 45.8657 38.1648C45.5816 38.2242 45.5816 38.6677 45.8967 38.6677H51.9857C52.3008 38.6677 52.3008 38.2242 52.0167 38.1648Z" fill="#2A4552"/>
<path d="M66.5926 38.1939C65.992 38.1939 65.6136 37.9867 65.6136 36.7737C65.6136 34.1379 65.6136 31.2077 65.6136 28.6022C65.6136 26.1459 62.9327 24.8431 60.1871 24.8431C58.6103 24.8431 57.0011 25.2866 55.866 26.1749C55.7394 26.2634 55.6128 26.3531 55.5186 26.5009C55.4876 26.5009 55.4876 26.5009 55.4553 26.53C55.3287 26.6778 55.2035 26.8257 55.0769 27.0038C54.8871 27.211 54.7618 27.5067 54.6662 27.7733C54.6353 27.8327 54.6043 27.8921 54.572 27.9515C54.572 27.9806 54.572 27.9806 54.572 28.0109C54.4777 28.2762 54.4144 28.5138 54.4144 28.7501C54.4454 29.8165 55.046 30.26 55.6452 30.26C56.3386 30.26 57.0334 29.6093 56.5918 28.6326C56.2121 27.8327 56.1178 26.6778 57.3795 26.0865C58.0743 25.7895 58.8621 25.6417 59.6834 25.6417C61.6077 25.6417 63.4686 26.53 63.4686 28.6022C63.4686 29.4021 63.4686 30.1716 63.4686 30.9411C63.4686 31.1483 62.3644 31.0889 60.8819 31.1786C57.8535 31.3265 53.5311 32.0366 53.5001 35.5884C53.5001 37.3056 55.046 38.9343 57.8535 38.9343C61.0084 38.9343 62.7428 37.4244 63.4686 35.6478C63.4686 36.1217 63.4686 36.6246 63.4686 37.1287C63.4686 38.4315 64.4785 38.8156 65.5194 38.8156C65.8977 38.8156 66.2761 38.7562 66.6235 38.6677C66.9709 38.5793 66.9076 38.1939 66.5926 38.1939ZM58.516 37.9867C56.9378 37.9867 55.9603 36.9215 55.9603 35.6188C55.9603 31.9178 60.7553 31.6815 63.4686 31.6815C63.4686 31.9772 63.4686 32.2729 63.4686 32.5989C63.3743 36.8912 60.4402 37.9867 58.516 37.9867Z" fill="#2A4552"/>
<path d="M71.3239 23.4521C72.3338 23.4521 72.7432 21.8827 72.7432 21.2307C72.7432 20.3437 72.0174 19.8989 71.3239 19.8989C70.5981 19.8989 69.8723 20.3437 69.8723 21.2307C69.8723 21.9118 70.283 23.4521 71.3239 23.4521ZM74.5098 38.1649C73.469 37.9868 72.5223 38.2534 72.5223 36.684V25.0795C72.5223 24.8723 72.3338 24.8432 72.144 24.9317C71.1031 25.4055 69.8414 25.7606 68.7049 26.0562C68.1999 26.175 68.3265 26.5895 68.6739 26.5895C70.1565 26.5895 70.3773 26.5604 70.3773 28.1588V36.684C70.3773 38.2534 69.463 37.9868 68.3898 38.1649C68.0747 38.2243 68.1057 38.6678 68.4208 38.6678H74.4789C74.8249 38.6678 74.8249 38.2243 74.5098 38.1649Z" fill="#2A4552"/>
<path d="M82.3966 38.165C81.3557 37.9868 80.4091 38.2534 80.4091 36.6841V17.8267C80.4091 17.6195 80.2206 17.6195 80.0307 17.7079C78.9899 18.1818 77.7282 18.5368 76.5917 18.8035C76.0867 18.9513 76.2456 19.3367 76.5607 19.3367C78.0432 19.3367 78.2641 19.3367 78.2641 20.906V36.6841C78.2641 38.2534 77.3498 37.9868 76.2766 38.165C75.9615 38.2243 75.9925 38.6679 76.3075 38.6679H82.3656C82.7117 38.6679 82.7117 38.2243 82.3966 38.165Z" fill="#2A4552"/>
<path d="M90.4409 30.6152C88.9584 30.1426 86.3407 29.6688 86.3407 27.8328C86.3407 26.7373 87.4759 25.6418 89.5576 25.6418C91.2933 25.6418 92.1443 26.3532 92.4917 27.5965C92.6816 28.2763 93.1542 28.5429 93.5959 28.5429C94.4792 28.5429 95.2993 27.4778 93.9743 26.2344C92.9334 25.2577 91.5451 24.9026 89.5576 24.8723C87.0975 24.8432 84.5108 25.8794 84.5108 28.5733C84.5108 31.5035 87.6024 31.9482 89.905 32.6874C91.3566 33.1322 93.7534 33.8132 93.7534 35.5001C93.7534 36.8028 92.3652 38.1346 89.905 38.1346C87.3816 38.1346 85.6459 37.3651 84.605 36.5071C84.5108 36.4174 84.3842 36.3884 84.2899 36.3884C83.9735 36.3884 83.785 36.7144 84.1001 37.01C85.5193 38.2824 87.6657 38.9938 89.7784 38.9938C92.524 38.9938 95.5834 37.9577 95.5834 34.9087C95.5834 32.1554 92.7449 31.3266 90.4409 30.6152Z" fill="#2A4552"/>
<path d="M52.6138 38.1648C51.5419 37.9867 50.6263 38.2533 50.6263 36.6839V28.8094C50.6263 26.204 48.1662 24.8722 45.5471 24.8722C43.5287 24.8722 41.4146 25.672 40.3104 27.3298V25.0794C40.3104 24.8722 40.0896 24.8431 39.9321 24.9316C38.8912 25.4054 37.6295 25.7605 36.462 26.0561C35.9571 26.1749 36.1146 26.5894 36.4297 26.5894C37.9446 26.5894 38.1344 26.5603 38.1344 28.1587V36.6839C38.1344 38.2533 37.2188 37.9867 36.1779 38.1648C35.8628 38.2242 35.8628 38.6677 36.2089 38.6677H42.267C42.5821 38.6677 42.613 38.2242 42.2979 38.1648C41.2261 37.9867 40.3104 38.2533 40.3104 36.6839V29.6383C40.3104 27.2704 42.7396 25.9968 44.917 25.9968C46.7779 25.9968 48.4503 26.885 48.4503 28.8094V36.6839C48.4503 38.2533 47.5346 37.9867 46.4628 38.1648C46.1787 38.2242 46.1787 38.6677 46.4938 38.6677H52.5828C52.8979 38.6677 52.8979 38.2242 52.6138 38.1648Z" fill="white"/>
<path d="M67.1897 38.1939C66.5892 38.1939 66.2108 37.9867 66.2108 36.7737C66.2108 34.1379 66.2108 31.2077 66.2108 28.6022C66.2108 26.1459 63.5298 24.8431 60.7842 24.8431C59.2074 24.8431 57.5983 25.2866 56.4632 26.1749C56.3366 26.2634 56.21 26.3531 56.1158 26.5009C56.0848 26.5009 56.0848 26.5009 56.0525 26.53C55.9259 26.6778 55.8007 26.8257 55.6741 27.0038C55.4842 27.211 55.359 27.5067 55.2634 27.7733C55.2324 27.8327 55.2015 27.8921 55.1691 27.9515C55.1691 27.9806 55.1691 27.9806 55.1691 28.0109C55.0749 28.2762 55.0116 28.5138 55.0116 28.7501C55.0426 29.8165 55.6431 30.26 56.2423 30.26C56.9358 30.26 57.6306 29.6093 57.189 28.6326C56.8092 27.8327 56.715 26.6778 57.9767 26.0865C58.6715 25.7895 59.4592 25.6417 60.2806 25.6417C62.2048 25.6417 64.0657 26.53 64.0657 28.6022C64.0657 29.4021 64.0657 30.1716 64.0657 30.9411C64.0657 31.1483 62.9616 31.0889 61.479 31.1786C58.4507 31.3265 54.1283 32.0366 54.0973 35.5884C54.0973 37.3056 55.6431 38.9343 58.4507 38.9343C61.6056 38.9343 63.34 37.4244 64.0657 35.6478C64.0657 36.1217 64.0657 36.6246 64.0657 37.1287C64.0657 38.4315 65.0757 38.8156 66.1165 38.8156C66.4949 38.8156 66.8733 38.7562 67.2207 38.6677C67.5681 38.5793 67.5048 38.1939 67.1897 38.1939ZM59.1132 37.9867C57.535 37.9867 56.5574 36.9215 56.5574 35.6188C56.5574 31.9178 61.3525 31.6815 64.0657 31.6815C64.0657 31.9772 64.0657 32.2729 64.0657 32.5989C63.9715 36.8912 61.0374 37.9867 59.1132 37.9867Z" fill="white"/>
<path d="M71.9211 23.4521C72.931 23.4521 73.3403 21.8827 73.3403 21.2307C73.3403 20.3437 72.6146 19.8989 71.9211 19.8989C71.1953 19.8989 70.4695 20.3437 70.4695 21.2307C70.4695 21.9118 70.8802 23.4521 71.9211 23.4521ZM75.107 38.1649C74.0661 37.9868 73.1195 38.2534 73.1195 36.684V25.0795C73.1195 24.8723 72.931 24.8432 72.7411 24.9317C71.7002 25.4055 70.4385 25.7606 69.3021 26.0562C68.7971 26.175 68.9237 26.5895 69.2711 26.5895C70.7536 26.5895 70.9745 26.5604 70.9745 28.1588V36.684C70.9745 38.2534 70.0602 37.9868 68.987 38.1649C68.6719 38.2243 68.7028 38.6678 69.0179 38.6678H75.076C75.4221 38.6678 75.4221 38.2243 75.107 38.1649Z" fill="white"/>
<path d="M82.9938 38.165C81.9529 37.9868 81.0063 38.2534 81.0063 36.6841V17.8267C81.0063 17.6195 80.8178 17.6195 80.6279 17.7079C79.587 18.1818 78.3253 18.5368 77.1888 18.8035C76.6839 18.9513 76.8428 19.3367 77.1579 19.3367C78.6404 19.3367 78.8612 19.3367 78.8612 20.906V36.6841C78.8612 38.2534 77.9469 37.9868 76.8737 38.165C76.5587 38.2243 76.5896 38.6679 76.9047 38.6679H82.9628C83.3089 38.6679 83.3089 38.2243 82.9938 38.165Z" fill="white"/>
<path d="M91.0381 30.6152C89.5555 30.1426 86.9378 29.6688 86.9378 27.8328C86.9378 26.7373 88.073 25.6418 90.1547 25.6418C91.8904 25.6418 92.7414 26.3532 93.0888 27.5965C93.2787 28.2763 93.7513 28.5429 94.193 28.5429C95.0763 28.5429 95.8964 27.4778 94.5714 26.2344C93.5305 25.2577 92.1422 24.9026 90.1547 24.8723C87.6946 24.8432 85.1079 25.8794 85.1079 28.5733C85.1079 31.5035 88.1995 31.9482 90.5021 32.6874C91.9537 33.1322 94.3505 33.8132 94.3505 35.5001C94.3505 36.8028 92.9623 38.1346 90.5021 38.1346C87.9787 38.1346 86.243 37.3651 85.2021 36.5071C85.1079 36.4174 84.9813 36.3884 84.887 36.3884C84.5706 36.3884 84.3821 36.7144 84.6972 37.01C86.1164 38.2824 88.2628 38.9938 90.3756 38.9938C93.1212 38.9938 96.1805 37.9577 96.1805 34.9087C96.1805 32.1554 93.342 31.3266 91.0381 30.6152Z" fill="white"/>
</svg>
